<?xml version="1.0" standalone="no"?>
<!DOCTYPE svg PUBLIC "-//W3C//DTD SVG 20010904//EN"
 "http://www.w3.org/TR/2001/REC-SVG-20010904/DTD/svg10.dtd">
<svg version="1.0" xmlns="http://www.w3.org/2000/svg"
 width="260.000000pt" height="260.000000pt" viewBox="0 0 260.000000 260.000000"
 preserveAspectRatio="xMidYMid meet">
<metadata>
Created by potrace 1.14, written by Peter Selinger 2001-2017
</metadata>
<g transform="translate(0.000000,260.000000) scale(0.100000,-0.100000)"
fill="#000000" stroke="none">
<path d="M0 1300 l0 -1300 1300 0 1300 0 0 1300 0 1300 -1300 0 -1300 0 0
-1300z m1113 666 c20 -10 61 -41 90 -68 l52 -50 -40 -35 c-22 -19 -55 -46 -73
-60 l-32 -25 -22 27 c-27 34 -92 65 -138 65 -73 0 -160 -61 -201 -142 -38 -74
-49 -173 -49 -439 l0 -249 -90 0 -89 0 -6 33 c-3 17 -4 237 -3 487 l3 455 80
0 80 0 3 -52 c3 -56 10 -64 28 -35 17 27 90 73 147 94 68 24 205 21 260 -6z
m820 -39 c59 -29 87 -50 116 -87 81 -103 124 -229 119 -352 l-3 -73 -348 -3
-348 -2 7 -38 c16 -95 105 -208 180 -230 124 -37 233 3 310 112 l21 29 71 -18
c53 -13 72 -21 72 -34 0 -29 -57 -115 -105 -160 -150 -138 -413 -140 -567 -3
-75 66 -84 78 -122 157 -43 87 -60 183 -53 290 7 94 32 169 86 252 97 150 205
205 391 200 86 -3 102 -6 173 -40z m207 -1292 l0 -75 -820 0 -820 0 0 75 0 75
820 0 820 0 0 -75z"/>
<path d="M1640 1804 c-69 -30 -136 -118 -155 -201 l-7 -33 252 0 253 0 -7 41
c-13 79 -67 158 -130 188 -51 25 -154 28 -206 5z"/>
</g>
</svg>
