<?xml version="1.0" standalone="no"?>
<!DOCTYPE svg PUBLIC "-//W3C//DTD SVG 20010904//EN"
 "http://www.w3.org/TR/2001/REC-SVG-20010904/DTD/svg10.dtd">
<svg version="1.0" xmlns="http://www.w3.org/2000/svg"
 width="260.000000pt" height="260.000000pt" viewBox="0 0 260.000000 260.000000"
 preserveAspectRatio="xMidYMid meet">
<metadata>
Created by potrace 1.14, written by Peter Selinger 2001-2017
</metadata>
<g transform="translate(0.000000,260.000000) scale(0.100000,-0.100000)"
fill="#000000" stroke="none">
<path d="M823 1959 c-29 -11 -75 -40 -102 -65 l-51 -46 0 34 c0 74 -4 78 -86
78 l-74 0 0 -485 0 -486 88 3 87 3 6 295 c6 320 11 357 64 426 87 114 224 135
310 47 39 -40 28 -43 118 31 26 22 47 43 47 47 0 21 -68 81 -122 109 -54 27
-71 30 -147 29 -61 0 -101 -6 -138 -20z"/>
<path d="M1585 1963 c-119 -43 -195 -110 -253 -225 -104 -205 -72 -472 76
-630 164 -175 438 -184 613 -21 51 48 109 148 93 162 -5 5 -38 16 -74 24 -64
16 -65 16 -80 -5 -34 -50 -75 -90 -114 -110 -50 -26 -162 -29 -217 -6 -74 32
-151 137 -165 227 l-7 41 349 2 349 3 3 56 c2 31 -4 89 -12 130 -32 154 -118
275 -234 331 -60 29 -78 33 -172 35 -81 3 -116 -1 -155 -14z m240 -152 c73
-34 138 -125 147 -206 l3 -30 -252 -3 c-286 -3 -268 -9 -237 80 47 139 214
217 339 159z"/>
<path d="M500 635 l0 -75 820 0 820 0 0 75 0 75 -820 0 -820 0 0 -75z"/>
</g>
</svg>
