<svg height="134.02" viewBox="0 0 153.92 134.02" width="153.92" xmlns="http://www.w3.org/2000/svg"><g transform="translate(-1.65 -1.1)"><path d="m7.14 36.73a.25.25 0 0 1 -.25-.25v-24.62a.25.25 0 0 1 .25-.25h3.65a.25.25 0 0 1 .25.23l.27 2.93a8.88 8.88 0 0 1 7.61-3.77 8.57 8.57 0 0 1 7.21 3.71 9.52 9.52 0 0 1 1.6 5.5.25.25 0 0 1 -.25.25h-4.23a.25.25 0 0 1 -.25-.25 5 5 0 0 0 -1.25-3.43 4.8 4.8 0 0 0 -3.75-1.55c-2.56 0-4.56 2-5.41 4a17.29 17.29 0 0 0 -1.05 6.28v10.97a.25.25 0 0 1 -.25.25z" fill="#329ae9"/><path d="m23.25 20.18a5.3 5.3 0 0 0 -1.31-3.6 5 5 0 0 0 -3.94-1.58 6.53 6.53 0 0 0 -5.64 4.18 17.72 17.72 0 0 0 -1.07 6.37v10.93h-4.15v-24.62h3.65l.34 3.7a8.58 8.58 0 0 1 7.79-4.33 8.34 8.34 0 0 1 7 3.6 9.33 9.33 0 0 1 1.56 5.35z" fill="#329ae9"/><path d="m42.81 37.37a11.36 11.36 0 0 1 -8-3.28 13.53 13.53 0 0 1 -3.73-9.81 14.37 14.37 0 0 1 3.72-10.05 11.07 11.07 0 0 1 8-3.24 10.82 10.82 0 0 1 7.77 3 14.3 14.3 0 0 1 3.62 10v1.46a.25.25 0 0 1 -.25.25h-18.08a8.16 8.16 0 0 0 2.4 5.75 6.44 6.44 0 0 0 4.55 1.78 6 6 0 0 0 4.37-1.41 5.89 5.89 0 0 0 2-2.84.25.25 0 0 1 .24-.18h4a.25.25 0 0 1 .24.31c-1.21 5.1-5.35 8.26-10.85 8.26zm6.55-15.54a7.66 7.66 0 0 0 -2-4.88 6.08 6.08 0 0 0 -4.55-1.95c-4.35 0-6.58 4-6.79 6.8z" fill="#329ae9"/><path d="m35.61 25.49a8.51 8.51 0 0 0 2.48 6.18 6.7 6.7 0 0 0 4.72 1.85 6.33 6.33 0 0 0 4.53-1.46 6.17 6.17 0 0 0 2-3h4c-1.17 5.11-5.4 8-10.56 8a11.06 11.06 0 0 1 -7.78-3.16 13.23 13.23 0 0 1 -3.65-9.63 14.06 14.06 0 0 1 3.65-9.88 10.8 10.8 0 0 1 7.83-3.16 10.57 10.57 0 0 1 7.59 3 14 14 0 0 1 3.58 9.77v1.46zm11.92-8.71a6.31 6.31 0 0 0 -4.72-2c-4.72 0-7 4.38-7.06 7.3h13.87a7.91 7.91 0 0 0 -2.09-5.3z" fill="#329ae9"/><path d="m57.58 36.73a.25.25 0 0 1 -.25-.25v-3.48a.25.25 0 0 1 .25-.25h6.8v-27.69h-6.68a.25.25 0 0 1 -.25-.25v-3.46a.25.25 0 0 1 .25-.25h11.11a.25.25 0 0 1 .25.25v31.38h6.58a.25.25 0 0 1 .25.25v3.5a.25.25 0 0 1 -.25.25z" fill="#329ae9"/><path d="m57.58 36.48v-3.48h7v-28.19h-6.88v-3.46h11.11v31.65h6.83v3.5z" fill="#329ae9"/><path d="m88.56 37.37c-6 0-8.77-3.89-8.77-7.5 0-3.88 2.8-7.94 9-8.28l7.45-.42v-1.57a4.2 4.2 0 0 0 -1.18-3.37 5.65 5.65 0 0 0 -4-1.35 5.81 5.81 0 0 0 -4.3 1.44 3.94 3.94 0 0 0 -1.16 2.68.25.25 0 0 1 -.25.23h-4.09a.25.25 0 0 1 -.26-.23 7.5 7.5 0 0 1 2.36-5.23 11.13 11.13 0 0 1 7.78-2.77c4.32 0 7.6 1.83 9 5a9 9 0 0 1 .75 3.75v11.92c0 1.23.58 1.4 1.21 1.4h1.08a.25.25 0 0 1 .24.25v3.5a.25.25 0 0 1 -.25.25h-2.72a3.78 3.78 0 0 1 -3.86-3.37 9.88 9.88 0 0 1 -8.03 3.67zm1.18-12.12c-2.52.14-5.21 1.34-5.21 4.28 0 2.44 1.7 3.84 4.66 3.84a6.89 6.89 0 0 0 5-1.92 7.67 7.67 0 0 0 2.12-5.37v-1.2z" fill="#329ae9"/><path d="m100.43 36.82a3.58 3.58 0 0 1 -3.65-3.75h-.1c-1.46 2.48-4.67 4-8.13 4-5.89 0-8.52-3.75-8.52-7.25s2.53-7.69 8.81-8l7.69-.44v-1.78a4.44 4.44 0 0 0 -1.26-3.6 5.81 5.81 0 0 0 -4.14-1.41 6.1 6.1 0 0 0 -4.48 1.51 4.19 4.19 0 0 0 -1.3 2.9h-4.09a7.25 7.25 0 0 1 2.29-5 10.94 10.94 0 0 1 7.59-2.73c4.77 0 7.59 2.19 8.76 4.87a8.73 8.73 0 0 1 .73 3.65v11.88c0 1.31.63 1.65 1.46 1.65h1.07v3.5zm-3.89-12.21-6.81.39c-2.63.15-5.45 1.41-5.45 4.53 0 2.19 1.41 4.09 4.91 4.09a7.16 7.16 0 0 0 5.16-2 7.92 7.92 0 0 0 2.19-5.55z" fill="#329ae9"/><path d="m107.29 47.09a.25.25 0 0 1 -.25-.25v-3.76a.25.25 0 0 1 .25-.25h3.55a3.36 3.36 0 0 0 3.51-2.32l1.62-4-10.71-24.51a.25.25 0 0 1 .23-.35h5.11a.25.25 0 0 1 .23.16l7.69 19 7.12-19a.25.25 0 0 1 .23-.16h4.72a.25.25 0 0 1 .23.34l-12.06 29.65c-1 2.54-2.77 5.46-7 5.46z" fill="#329ae9"/><path d="m118.53 41.54c-1.26 3.11-3.11 5.3-6.81 5.3h-4.43v-3.76h3.55a3.59 3.59 0 0 0 3.75-2.48l1.65-4.14-10.75-24.6h5.11l7.93 19.56 7.35-19.56h4.72z" fill="#329ae9"/><g opacity=".25"><path d="m12.61 81.57a10.21 10.21 0 0 1 -7.33-2.95c-2.34-2.38-3.62-6-3.62-10.2s1.34-8 3.86-10.42a10.45 10.45 0 0 1 7.18-2.84 9.3 9.3 0 0 1 7 3v-12.61a.25.25 0 0 1 .3-.25h4.14a.25.25 0 0 1 .25.25v35.13a.25.25 0 0 1 -.25.25h-3.7a.25.25 0 0 1 -.25-.23l-.19-2.49a9.53 9.53 0 0 1 -7.39 3.36zm.68-22.29a5.89 5.89 0 0 0 -4.35 1.82c-2.11 2.11-2.55 5.12-2.55 7.27 0 3.16.89 5.8 2.51 7.41a5.9 5.9 0 0 0 4.4 1.68 5.76 5.76 0 0 0 4-1.49c2.22-2 2.69-5.21 2.69-7.6s-.47-5.64-2.69-7.6a5.76 5.76 0 0 0 -4.01-1.49z"/><path d="m20.44 80.68-.29-3.21c-1.41 2.48-4.77 3.84-7.54 3.84a10 10 0 0 1 -7.15-2.87c-2.34-2.38-3.55-5.94-3.55-10s1.31-7.85 3.79-10.24a10.16 10.16 0 0 1 7-2.77 8.83 8.83 0 0 1 7.3 3.5v-13.38h4.14v35.13zm-3-20.1a6 6 0 0 0 -4.15-1.58 6.11 6.11 0 0 0 -4.53 1.9 10.35 10.35 0 0 0 -2.63 7.44c0 2.87.73 5.74 2.58 7.59a6.15 6.15 0 0 0 4.57 1.75 6 6 0 0 0 4.14-1.56c2-1.8 2.77-4.72 2.77-7.79s-.72-5.94-2.76-7.74z"/><path d="m41.85 81.57a11.36 11.36 0 0 1 -8-3.28 13.52 13.52 0 0 1 -3.73-9.81 14.37 14.37 0 0 1 3.72-10.05 11.07 11.07 0 0 1 8-3.24 10.82 10.82 0 0 1 7.77 3 14.3 14.3 0 0 1 3.62 10v1.46a.25.25 0 0 1 -.25.25h-18.08a8.16 8.16 0 0 0 2.4 5.75 6.43 6.43 0 0 0 4.55 1.78 6 6 0 0 0 4.37-1.41 5.9 5.9 0 0 0 2-2.84.25.25 0 0 1 .24-.18h4a.25.25 0 0 1 .24.31c-1.21 5.11-5.35 8.26-10.85 8.26zm6.55-15.57a7.66 7.66 0 0 0 -2-4.88 6.08 6.08 0 0 0 -4.54-1.92c-4.35 0-6.58 4-6.79 6.8z"/><path d="m34.65 69.69a8.51 8.51 0 0 0 2.48 6.18 6.7 6.7 0 0 0 4.72 1.85 6.33 6.33 0 0 0 4.53-1.46 6.17 6.17 0 0 0 2-3h4c-1.17 5.11-5.4 8-10.56 8a11.06 11.06 0 0 1 -7.79-3.21 13.23 13.23 0 0 1 -3.65-9.63 14.06 14.06 0 0 1 3.65-9.88 10.8 10.8 0 0 1 7.83-3.16 10.57 10.57 0 0 1 7.59 3 14 14 0 0 1 3.55 9.85v1.46zm11.92-8.69a6.31 6.31 0 0 0 -4.72-2c-4.72 0-7 4.38-7.06 7.3h13.87a7.91 7.91 0 0 0 -2.09-5.3z"/><path d="m69.06 81.57c-3.81 0-6.54-.93-8.59-2.94a8.34 8.34 0 0 1 -2.47-5.88.25.25 0 0 1 .25-.25h4.14a.25.25 0 0 1 .25.24 4.58 4.58 0 0 0 2 3.6 7.57 7.57 0 0 0 4.62 1.17 7.36 7.36 0 0 0 4.66-1.35 3 3 0 0 0 1.08-2.34c0-1.71-1.22-2.83-3.44-3.16l-6.28-.92a7.84 7.84 0 0 1 -4.67-2.37 6.67 6.67 0 0 1 -1.49-4.37 6.9 6.9 0 0 1 2.07-4.9 11 11 0 0 1 7.67-2.9c3.61 0 6.64 1.24 8.32 3.41a8 8 0 0 1 1.76 4.81.25.25 0 0 1 -.25.26h-4.13a.25.25 0 0 1 -.25-.24 4.1 4.1 0 0 0 -1.37-2.84 6.1 6.1 0 0 0 -4.07-1.4 6.58 6.58 0 0 0 -4 1.16 3.08 3.08 0 0 0 -1.27 2.38c0 1.6.94 2.47 3.05 2.82l6.66 1c3.18.47 6.39 2.8 6.39 7a7 7 0 0 1 -2 5.09c-1.87 1.84-5.01 2.92-8.64 2.92z"/><path d="m77.48 78.45c-1.9 1.95-5.06 2.87-8.42 2.87s-6.23-.73-8.42-2.87a8.12 8.12 0 0 1 -2.43-5.69h4.14a4.84 4.84 0 0 0 2.14 3.8 7.9 7.9 0 0 0 4.77 1.22 7.51 7.51 0 0 0 4.82-1.41 3.18 3.18 0 0 0 1.22-2.53c0-1.61-1-3-3.65-3.41l-6.28-.92a7.62 7.62 0 0 1 -4.53-2.29 6.39 6.39 0 0 1 -1.47-4.22 6.62 6.62 0 0 1 2-4.72 10.7 10.7 0 0 1 7.49-2.82c3.36 0 6.42 1.12 8.13 3.31a7.79 7.79 0 0 1 1.7 4.67h-4.13a4.36 4.36 0 0 0 -1.46-3 6.38 6.38 0 0 0 -4.23-1.46 6.84 6.84 0 0 0 -4.19 1.22 3.35 3.35 0 0 0 -1.36 2.58c0 1.85 1.22 2.73 3.26 3.07l6.67 1c3 .44 6.18 2.58 6.18 6.72a6.78 6.78 0 0 1 -1.95 4.88z"/><path d="m85.18 80.93a.25.25 0 0 1 -.25-.25v-3.55a.25.25 0 0 1 .25-.25h5.65v-17.06h-5.68a.25.25 0 0 1 -.25-.25v-3.5a.25.25 0 0 1 .25-.25h10.11a.25.25 0 0 1 .25.25v20.81h5.49a.25.25 0 0 1 .25.25v3.55a.25.25 0 0 1 -.25.25zm5.82-31.17a.25.25 0 0 1 -.25-.25v-4.18a.25.25 0 0 1 .25-.25h4.22a.25.25 0 0 1 .25.25v4.19a.25.25 0 0 1 -.25.25z"/><path d="m85.18 80.68v-3.55h5.9v-17.56h-5.93v-3.5h10.11v21.06h5.74v3.55zm5.82-31.17v-4.18h4.22v4.19z"/><path d="m117 92.42c-2.91 0-7.07-.3-9.67-2.9a6.12 6.12 0 0 1 -1.92-4.52 6.43 6.43 0 0 1 3.19-5.52 4.64 4.64 0 0 1 -2.51-4.16 5.52 5.52 0 0 1 3.16-4.82 8.87 8.87 0 0 1 -.25-12.5 10.12 10.12 0 0 1 7.58-2.85 11.22 11.22 0 0 1 5.62 1.35 5.49 5.49 0 0 1 5.23-3.34 10.37 10.37 0 0 1 1.25.1.25.25 0 0 1 .22.25v3.36a.25.25 0 0 1 -.25.25 5.19 5.19 0 0 0 -.88 0 2.83 2.83 0 0 0 -2.77 1.88 8.26 8.26 0 0 1 1.63 5.16 8.82 8.82 0 0 1 -2.3 6 10.34 10.34 0 0 1 -7.68 3 11.82 11.82 0 0 1 -4.28-.76 2.67 2.67 0 0 0 -1.89 2 1.68 1.68 0 0 0 .41 1.33 4.1 4.1 0 0 0 3 .83h5.4c2.56 0 6.07.46 8.21 2.65a6.89 6.89 0 0 1 2 5 7 7 0 0 1 -2.17 5.09c-2.61 2.6-7.05 3.12-10.33 3.12zm-4.44-11.73a4 4 0 0 0 -2.9 3.64 3.23 3.23 0 0 0 .95 2.4c1.63 1.63 5 1.63 6.64 1.63 3.3 0 5.46-.55 6.59-1.68a3.26 3.26 0 0 0 1-2.35c0-3.37-3.32-3.65-6.43-3.65zm4-21.65c-3.29 0-5.49 2.07-5.49 5.15a5.5 5.5 0 0 0 11 0c-.07-3.08-2.23-5.19-5.51-5.19z"/><path d="m127.07 89.25c-2.38 2.34-6.62 2.92-10.07 2.92-3.26 0-7.1-.44-9.49-2.82a5.89 5.89 0 0 1 -1.85-4.35 6.2 6.2 0 0 1 3.5-5.55 4.41 4.41 0 0 1 -2.82-4.14 5.42 5.42 0 0 1 3.36-4.77 8.6 8.6 0 0 1 -.49-12.36 9.86 9.86 0 0 1 7.4-2.77 10.79 10.79 0 0 1 5.74 1.46 5.27 5.27 0 0 1 5.11-3.46 10.21 10.21 0 0 1 1.22.1v3.36a5.28 5.28 0 0 0 -.92 0 3.05 3.05 0 0 0 -3.07 2.24 7.94 7.94 0 0 1 1.65 5.11 8.6 8.6 0 0 1 -2.24 5.78 10 10 0 0 1 -7.49 3 11.71 11.71 0 0 1 -4.28-.78 3 3 0 0 0 -2.14 2.29c-.15 2.14 2.09 2.43 3.65 2.43h5.4c2.92 0 6.08.58 8 2.58a6.59 6.59 0 0 1 1.9 4.82 6.79 6.79 0 0 1 -2.07 4.91zm-9.83-8.81h-4.72a4.27 4.27 0 0 0 -3.11 3.89 3.48 3.48 0 0 0 1 2.58c1.61 1.61 4.67 1.7 6.81 1.7s5.21-.19 6.76-1.75a3.51 3.51 0 0 0 1.12-2.53c.02-4.18-4.75-3.89-7.86-3.89zm-.68-21.65c-3.5 0-5.74 2.29-5.74 5.4a5.75 5.75 0 0 0 11.48 0c0-3.11-2.24-5.4-5.74-5.4z"/><path d="m151.09 80.93a.25.25 0 0 1 -.25-.25v-15.62c0-3.74-1.73-5.64-5.15-5.64a6.21 6.21 0 0 0 -5.32 3.8 16.76 16.76 0 0 0 -1 6.22v11.24a.25.25 0 0 1 -.25.25h-4.18a.25.25 0 0 1 -.25-.25v-24.62a.25.25 0 0 1 .25-.25h4.06a.25.25 0 0 1 .18.08.25.25 0 0 1 .07.18l-.06 2.77a9.4 9.4 0 0 1 7.42-3.66c5.73 0 9 3.39 9 9.3v16.2a.25.25 0 0 1 -.25.25z"/><path d="m151.09 80.68v-15.62c0-3.6-1.61-5.89-5.4-5.89a6.45 6.45 0 0 0 -5.55 3.94 16.65 16.65 0 0 0 -1.07 6.33v11.24h-4.18v-24.62h4.11l-.08 3.7a8.82 8.82 0 0 1 7.69-4.33c5.6 0 8.76 3.36 8.76 9.05v16.2z"/><path d="m14.41 121.49a11.32 11.32 0 0 1 -7.86-3.09 13.58 13.58 0 0 1 -3.88-10.1 13.58 13.58 0 0 1 3.87-10.11 11.33 11.33 0 0 1 7.86-3.09 10.67 10.67 0 0 1 7.43 2.75 9.69 9.69 0 0 1 3.17 6.44.25.25 0 0 1 -.25.27h-4.21a.25.25 0 0 1 -.25-.22 6 6 0 0 0 -1.88-3.65 6.09 6.09 0 0 0 -4-1.48 6.53 6.53 0 0 0 -4.41 1.68c-2.14 1.95-2.59 5.1-2.59 7.41s.45 5.41 2.59 7.36a6.49 6.49 0 0 0 4.41 1.74 6.09 6.09 0 0 0 4-1.49 6 6 0 0 0 1.92-3.64.25.25 0 0 1 .25-.22h4.14a.25.25 0 0 1 .25.27 9.78 9.78 0 0 1 -3.19 6.49 10.6 10.6 0 0 1 -7.37 2.68z"/><path d="m14.41 95.35a10.43 10.43 0 0 1 7.25 2.65 9.46 9.46 0 0 1 3.07 6.28h-4.19a6.2 6.2 0 0 0 -1.95-3.8 6.3 6.3 0 0 0 -4.18-1.48 6.74 6.74 0 0 0 -4.57 1.75c-2.09 1.9-2.68 4.91-2.68 7.59s.58 5.64 2.68 7.54a6.77 6.77 0 0 0 4.57 1.8 6.13 6.13 0 0 0 6.18-5.35h4.14a9.62 9.62 0 0 1 -3.11 6.33 10.28 10.28 0 0 1 -7.2 2.63 11.14 11.14 0 0 1 -7.69-3 13.31 13.31 0 0 1 -3.79-9.93 13.31 13.31 0 0 1 3.79-9.93 11.14 11.14 0 0 1 7.68-3.08z"/><path d="m41.06 121.49a11.6 11.6 0 0 1 -8-3 13.65 13.65 0 0 1 -3.92-10.15 13.65 13.65 0 0 1 3.96-10.2 11.61 11.61 0 0 1 8-3 11.31 11.31 0 0 1 7.86 3 13.58 13.58 0 0 1 3.92 10.11 13.71 13.71 0 0 1 -3.92 10.2 11.3 11.3 0 0 1 -7.9 3.04zm-.06-22.29a6.52 6.52 0 0 0 -4.41 1.69c-2.34 2.12-2.69 5.52-2.69 7.36s.35 5.33 2.69 7.45a6.6 6.6 0 0 0 8.81 0c2.34-2.12 2.69-5.55 2.69-7.41s-.35-5.28-2.69-7.41a6.53 6.53 0 0 0 -4.4-1.68z"/><path d="m48.75 118.27a11.11 11.11 0 0 1 -7.69 3 11.36 11.36 0 0 1 -7.79-3 13.46 13.46 0 0 1 -3.84-10 13.46 13.46 0 0 1 3.84-10 11.36 11.36 0 0 1 7.79-3 11.11 11.11 0 0 1 7.69 3 13.34 13.34 0 0 1 3.84 9.93 13.57 13.57 0 0 1 -3.84 10.07zm-3.16-17.57a6.85 6.85 0 0 0 -9.15 0c-2.09 1.9-2.77 4.87-2.77 7.54s.68 5.74 2.77 7.64a6.85 6.85 0 0 0 9.15 0c2.09-1.9 2.77-4.91 2.77-7.59s-.68-5.69-2.77-7.58z"/></g></g><rect fill="#329ae9" height="3.75" rx=".36" width="46.94" x="1.7" y="130.27"/></svg>