<svg xmlns="http://www.w3.org/2000/svg" width="32" height="32" viewBox="0 0 32 32"><title>3</title><path d="M27.24,4.91A3,3,0,0,0,25.07,4H7.23a3,3,0,0,0-2.17.91,3,3,0,0,0-.91,2.17V24.92a3,3,0,0,0,.91,2.17A3,3,0,0,0,7.23,28H25.07a3.09,3.09,0,0,0,3.08-3.08V7.08A3,3,0,0,0,27.24,4.91ZM12.77,12.65a4.71,4.71,0,0,1,3.4-1.37,4.73,4.73,0,0,1,3.41,1.37,4.57,4.57,0,0,1,0,6.61,4.73,4.73,0,0,1-3.41,1.37,4.72,4.72,0,0,1-3.4-1.37,4.57,4.57,0,0,1,0-6.61ZM25.43,24.28a.91.91,0,0,1-.28.68.93.93,0,0,1-.67.27H7.77a.93.93,0,0,1-1-1V14.16H9a6.73,6.73,0,0,0-.31,2,6.86,6.86,0,0,0,2.19,5.12,7.3,7.3,0,0,0,5.27,2.12,7.51,7.51,0,0,0,3.75-1,7.3,7.3,0,0,0,2.72-2.63,6.92,6.92,0,0,0,1-3.63,6.73,6.73,0,0,0-.31-2h2.11V24.28h0Zm0-14a1.07,1.07,0,0,1-1.08,1.08H21.63a1.07,1.07,0,0,1-1.08-1.08V7.75A1,1,0,0,1,20.87,7a1,1,0,0,1,.77-.32h2.72a1,1,0,0,1,.77.32,1,1,0,0,1,.31.76Z"/></svg>