<svg xmlns="http://www.w3.org/2000/svg" width="32" height="32" viewBox="0 0 32 32"><defs><style>.a{fill:#010002;}</style></defs><title>3</title><path class="a" d="M28.65,8.56a9.83,9.83,0,0,1-2.83.78A4.94,4.94,0,0,0,28,6.61a9.93,9.93,0,0,1-3.13,1.2,4.93,4.93,0,0,0-8.39,4.49A14,14,0,0,1,6.32,7.15a4.93,4.93,0,0,0,1.52,6.57,4.92,4.92,0,0,1-2.23-.62v.06A4.93,4.93,0,0,0,9.56,18a5,5,0,0,1-1.3.17,4.73,4.73,0,0,1-.93-.09,4.93,4.93,0,0,0,4.6,3.42,9.88,9.88,0,0,1-6.11,2.1,10.46,10.46,0,0,1-1.17-.07A14,14,0,0,0,26.2,11.74l0-.64A9.83,9.83,0,0,0,28.65,8.56Z"/></svg>