<svg height="32" viewBox="0 0 32 32" width="32" xmlns="http://www.w3.org/2000/svg"><path d="m28.65 8.56a9.83 9.83 0 0 1 -2.83.78 4.94 4.94 0 0 0 2.18-2.73 9.93 9.93 0 0 1 -3.13 1.2 4.93 4.93 0 0 0 -8.39 4.49 14 14 0 0 1 -10.16-5.15 4.93 4.93 0 0 0 1.52 6.57 4.92 4.92 0 0 1 -2.23-.62v.06a4.93 4.93 0 0 0 3.95 4.84 5 5 0 0 1 -1.3.17 4.73 4.73 0 0 1 -.93-.09 4.93 4.93 0 0 0 4.6 3.42 9.88 9.88 0 0 1 -6.11 2.1 10.46 10.46 0 0 1 -1.17-.07 14 14 0 0 0 21.55-11.79v-.64a9.83 9.83 0 0 0 2.45-2.54z" fill="#010002"/></svg>