<svg xmlns="http://www.w3.org/2000/svg" width="153.92" height="134.02" viewBox="0 0 153.92 134.02"><defs><style>.a{fill:#329ae9;}.b{opacity:0.25;}</style></defs><title>relay logo</title><path class="a" d="M7.14,36.73a.25.25,0,0,1-.25-.25V11.86a.25.25,0,0,1,.25-.25h3.65a.25.25,0,0,1,.25.23l.27,2.93A8.88,8.88,0,0,1,18.92,11a8.57,8.57,0,0,1,7.21,3.71,9.52,9.52,0,0,1,1.6,5.5.25.25,0,0,1-.25.25H23.25a.25.25,0,0,1-.25-.25,5,5,0,0,0-1.25-3.43A4.8,4.8,0,0,0,18,15.23c-2.56,0-4.56,2-5.41,4a17.29,17.29,0,0,0-1.05,6.28V36.48a.25.25,0,0,1-.25.25Z" transform="translate(-1.65 -1.1)"/><path class="a" d="M23.25,20.18a5.3,5.3,0,0,0-1.31-3.6A5,5,0,0,0,18,15a6.53,6.53,0,0,0-5.64,4.18,17.72,17.72,0,0,0-1.07,6.37V36.48H7.14V11.86h3.65l.34,3.7a8.58,8.58,0,0,1,7.79-4.33,8.34,8.34,0,0,1,7,3.6,9.33,9.33,0,0,1,1.56,5.35Z" transform="translate(-1.65 -1.1)"/><path class="a" d="M42.81,37.37a11.36,11.36,0,0,1-8-3.28,13.53,13.53,0,0,1-3.73-9.81,14.37,14.37,0,0,1,3.72-10.05,11.07,11.07,0,0,1,8-3.24,10.82,10.82,0,0,1,7.77,3,14.3,14.3,0,0,1,3.62,10v1.46a.25.25,0,0,1-.25.25H35.86a8.16,8.16,0,0,0,2.4,5.75,6.44,6.44,0,0,0,4.55,1.78,6,6,0,0,0,4.37-1.41,5.89,5.89,0,0,0,2-2.84.25.25,0,0,1,.24-.18h4a.25.25,0,0,1,.24.31C52.45,34.21,48.31,37.37,42.81,37.37Zm6.55-15.54a7.66,7.66,0,0,0-2-4.88A6.08,6.08,0,0,0,42.81,15c-4.35,0-6.58,4-6.79,6.8Z" transform="translate(-1.65 -1.1)"/><path class="a" d="M35.61,25.49a8.51,8.51,0,0,0,2.48,6.18,6.7,6.7,0,0,0,4.72,1.85,6.33,6.33,0,0,0,4.53-1.46,6.17,6.17,0,0,0,2-3h4c-1.17,5.11-5.4,8-10.56,8A11.06,11.06,0,0,1,35,33.9a13.23,13.23,0,0,1-3.65-9.63A14.06,14.06,0,0,1,35,14.39a10.8,10.8,0,0,1,7.83-3.16,10.57,10.57,0,0,1,7.59,3A14,14,0,0,1,54,24v1.46Zm11.92-8.71a6.31,6.31,0,0,0-4.72-2c-4.72,0-7,4.38-7.06,7.3H49.62A7.91,7.91,0,0,0,47.53,16.78Z" transform="translate(-1.65 -1.1)"/><path class="a" d="M57.58,36.73a.25.25,0,0,1-.25-.25V33a.25.25,0,0,1,.25-.25h6.8V5.06H57.7a.25.25,0,0,1-.25-.25V1.35a.25.25,0,0,1,.25-.25H68.81a.25.25,0,0,1,.25.25V32.73h6.58a.25.25,0,0,1,.25.25v3.5a.25.25,0,0,1-.25.25Z" transform="translate(-1.65 -1.1)"/><path class="a" d="M57.58,36.48V33h7V4.81H57.7V1.35H68.81V33h6.83v3.5Z" transform="translate(-1.65 -1.1)"/><path class="a" d="M88.56,37.37c-6,0-8.77-3.89-8.77-7.5,0-3.88,2.8-7.94,9-8.28l7.45-.42V19.6a4.2,4.2,0,0,0-1.18-3.37,5.65,5.65,0,0,0-4-1.35,5.81,5.81,0,0,0-4.3,1.44A3.94,3.94,0,0,0,85.6,19a.25.25,0,0,1-.25.23H81.26A.25.25,0,0,1,81,19a7.5,7.5,0,0,1,2.36-5.23A11.13,11.13,0,0,1,91.14,11c4.32,0,7.6,1.83,9,5a9,9,0,0,1,.75,3.75V31.67c0,1.23.58,1.4,1.21,1.4l1.08,0a.25.25,0,0,1,.24.25v3.5a.25.25,0,0,1-.25.25h0l-2.72,0a3.78,3.78,0,0,1-3.86-3.37A9.88,9.88,0,0,1,88.56,37.37Zm1.18-12.12c-2.52.14-5.21,1.34-5.21,4.28,0,2.44,1.7,3.84,4.66,3.84a6.89,6.89,0,0,0,5-1.92,7.67,7.67,0,0,0,2.12-5.37v-1.2Z" transform="translate(-1.65 -1.1)"/><path class="a" d="M100.43,36.82a3.58,3.58,0,0,1-3.65-3.75h-.1c-1.46,2.48-4.67,4-8.13,4-5.89,0-8.52-3.75-8.52-7.25s2.53-7.69,8.81-8l7.69-.44V19.6A4.44,4.44,0,0,0,95.27,16a5.81,5.81,0,0,0-4.14-1.41,6.1,6.1,0,0,0-4.48,1.51A4.19,4.19,0,0,0,85.35,19H81.26A7.25,7.25,0,0,1,83.55,14a10.94,10.94,0,0,1,7.59-2.73c4.77,0,7.59,2.19,8.76,4.87a8.73,8.73,0,0,1,.73,3.65V31.67c0,1.31.63,1.65,1.46,1.65l1.07,0v3.5ZM96.54,24.61,89.73,25c-2.63.15-5.45,1.41-5.45,4.53,0,2.19,1.41,4.09,4.91,4.09a7.16,7.16,0,0,0,5.16-2,7.92,7.92,0,0,0,2.19-5.55Z" transform="translate(-1.65 -1.1)"/><path class="a" d="M107.29,47.09a.25.25,0,0,1-.25-.25V43.08a.25.25,0,0,1,.25-.25h0l3.55,0a3.36,3.36,0,0,0,3.51-2.32l1.62-4L105.26,12a.25.25,0,0,1,.23-.35h5.11a.25.25,0,0,1,.23.16l7.69,19,7.12-19a.25.25,0,0,1,.23-.16h4.72a.25.25,0,0,1,.23.34L118.76,41.64c-1,2.54-2.77,5.46-7,5.46Z" transform="translate(-1.65 -1.1)"/><path class="a" d="M118.53,41.54c-1.26,3.11-3.11,5.3-6.81,5.3h-4.43V43.08l3.55,0a3.59,3.59,0,0,0,3.75-2.48l1.65-4.14L105.49,11.86h5.11l7.93,19.56,7.35-19.56h4.72Z" transform="translate(-1.65 -1.1)"/><g class="b"><path d="M12.61,81.57a10.21,10.21,0,0,1-7.33-2.95c-2.34-2.38-3.62-6-3.62-10.2S3,60.42,5.52,58a10.45,10.45,0,0,1,7.18-2.84,9.3,9.3,0,0,1,7,3V45.55A.25.25,0,0,1,20,45.3h4.14a.25.25,0,0,1,.25.25V80.68a.25.25,0,0,1-.25.25H20.44a.25.25,0,0,1-.25-.23L20,78.21A9.53,9.53,0,0,1,12.61,81.57Zm.68-22.29a5.89,5.89,0,0,0-4.35,1.82c-2.11,2.11-2.55,5.12-2.55,7.27,0,3.16.89,5.8,2.51,7.41a5.9,5.9,0,0,0,4.4,1.68,5.76,5.76,0,0,0,4-1.49c2.22-2,2.69-5.21,2.69-7.6s-.47-5.64-2.69-7.6A5.76,5.76,0,0,0,13.29,59.28Z" transform="translate(-1.65 -1.1)"/><path d="M20.44,80.68l-.29-3.21c-1.41,2.48-4.77,3.84-7.54,3.84a10,10,0,0,1-7.15-2.87c-2.34-2.38-3.55-5.94-3.55-10S3.22,60.59,5.7,58.2a10.16,10.16,0,0,1,7-2.77A8.83,8.83,0,0,1,20,58.93V45.55h4.14V80.68Zm-3-20.1A6,6,0,0,0,13.29,59a6.11,6.11,0,0,0-4.53,1.9,10.35,10.35,0,0,0-2.63,7.44c0,2.87.73,5.74,2.58,7.59a6.15,6.15,0,0,0,4.57,1.75,6,6,0,0,0,4.14-1.56c2-1.8,2.77-4.72,2.77-7.79S19.47,62.39,17.43,60.59Z" transform="translate(-1.65 -1.1)"/><path d="M41.85,81.57a11.36,11.36,0,0,1-8-3.28,13.52,13.52,0,0,1-3.73-9.81,14.37,14.37,0,0,1,3.72-10.05,11.07,11.07,0,0,1,8-3.24,10.82,10.82,0,0,1,7.77,3,14.3,14.3,0,0,1,3.62,10v1.46a.25.25,0,0,1-.25.25H34.9a8.16,8.16,0,0,0,2.4,5.75,6.43,6.43,0,0,0,4.55,1.78,6,6,0,0,0,4.37-1.41,5.9,5.9,0,0,0,2-2.84.25.25,0,0,1,.24-.18h4a.25.25,0,0,1,.24.31C51.49,78.42,47.35,81.57,41.85,81.57ZM48.4,66a7.66,7.66,0,0,0-2-4.88,6.08,6.08,0,0,0-4.54-1.92c-4.35,0-6.58,4-6.79,6.8Z" transform="translate(-1.65 -1.1)"/><path d="M34.65,69.69a8.51,8.51,0,0,0,2.48,6.18,6.7,6.7,0,0,0,4.72,1.85,6.33,6.33,0,0,0,4.53-1.46,6.17,6.17,0,0,0,2-3h4c-1.17,5.11-5.4,8-10.56,8a11.06,11.06,0,0,1-7.79-3.21,13.23,13.23,0,0,1-3.65-9.63,14.06,14.06,0,0,1,3.65-9.88,10.8,10.8,0,0,1,7.83-3.16,10.57,10.57,0,0,1,7.59,3A14,14,0,0,1,53,68.23v1.46ZM46.57,61a6.31,6.31,0,0,0-4.72-2c-4.72,0-7,4.38-7.06,7.3H48.66A7.91,7.91,0,0,0,46.57,61Z" transform="translate(-1.65 -1.1)"/><path d="M69.06,81.57c-3.81,0-6.54-.93-8.59-2.94A8.34,8.34,0,0,1,58,72.75a.25.25,0,0,1,.25-.25h4.14a.25.25,0,0,1,.25.24,4.58,4.58,0,0,0,2,3.6,7.57,7.57,0,0,0,4.62,1.17,7.36,7.36,0,0,0,4.66-1.35A3,3,0,0,0,75,73.82c0-1.71-1.22-2.83-3.44-3.16l-6.28-.92a7.84,7.84,0,0,1-4.67-2.37A6.67,6.67,0,0,1,59.12,63a6.9,6.9,0,0,1,2.07-4.9,11,11,0,0,1,7.67-2.9c3.61,0,6.64,1.24,8.32,3.41a8,8,0,0,1,1.76,4.81.25.25,0,0,1-.25.26H74.56a.25.25,0,0,1-.25-.24,4.1,4.1,0,0,0-1.37-2.84,6.1,6.1,0,0,0-4.07-1.4,6.58,6.58,0,0,0-4,1.16,3.08,3.08,0,0,0-1.27,2.38c0,1.6.94,2.47,3.05,2.82l6.66,1c3.18.47,6.39,2.8,6.39,7a7,7,0,0,1-2,5.09C75.83,80.49,72.69,81.57,69.06,81.57Z" transform="translate(-1.65 -1.1)"/><path d="M77.48,78.45c-1.9,1.95-5.06,2.87-8.42,2.87s-6.23-.73-8.42-2.87a8.12,8.12,0,0,1-2.43-5.69h4.14a4.84,4.84,0,0,0,2.14,3.8,7.9,7.9,0,0,0,4.77,1.22,7.51,7.51,0,0,0,4.82-1.41,3.18,3.18,0,0,0,1.22-2.53c0-1.61-1-3-3.65-3.41l-6.28-.92a7.62,7.62,0,0,1-4.53-2.29A6.39,6.39,0,0,1,59.37,63a6.62,6.62,0,0,1,2-4.72,10.7,10.7,0,0,1,7.49-2.82c3.36,0,6.42,1.12,8.13,3.31a7.79,7.79,0,0,1,1.7,4.67H74.56a4.36,4.36,0,0,0-1.46-3,6.38,6.38,0,0,0-4.23-1.46,6.84,6.84,0,0,0-4.19,1.22,3.35,3.35,0,0,0-1.36,2.58c0,1.85,1.22,2.73,3.26,3.07l6.67,1c3,.44,6.18,2.58,6.18,6.72A6.78,6.78,0,0,1,77.48,78.45Z" transform="translate(-1.65 -1.1)"/><path d="M85.18,80.93a.25.25,0,0,1-.25-.25V77.13a.25.25,0,0,1,.25-.25h5.65V59.82H85.15a.25.25,0,0,1-.25-.25v-3.5a.25.25,0,0,1,.25-.25H95.26a.25.25,0,0,1,.25.25V76.88H101a.25.25,0,0,1,.25.25v3.55a.25.25,0,0,1-.25.25ZM91,49.76a.25.25,0,0,1-.25-.25V45.33a.25.25,0,0,1,.25-.25h4.22a.25.25,0,0,1,.25.25v4.19a.25.25,0,0,1-.25.25Z" transform="translate(-1.65 -1.1)"/><path d="M85.18,80.68V77.13h5.9V59.57H85.15v-3.5H95.26V77.13H101v3.55ZM91,49.51V45.33h4.22v4.19Z" transform="translate(-1.65 -1.1)"/><path d="M117,92.42c-2.91,0-7.07-.3-9.67-2.9A6.12,6.12,0,0,1,105.41,85a6.43,6.43,0,0,1,3.19-5.52,4.64,4.64,0,0,1-2.51-4.16,5.52,5.52,0,0,1,3.16-4.82A8.87,8.87,0,0,1,109,58a10.12,10.12,0,0,1,7.58-2.85,11.22,11.22,0,0,1,5.62,1.35,5.49,5.49,0,0,1,5.23-3.34,10.37,10.37,0,0,1,1.25.1.25.25,0,0,1,.22.25v3.36a.25.25,0,0,1-.25.25h0a5.19,5.19,0,0,0-.88,0A2.83,2.83,0,0,0,125,59a8.26,8.26,0,0,1,1.63,5.16,8.82,8.82,0,0,1-2.3,6,10.34,10.34,0,0,1-7.68,3,11.82,11.82,0,0,1-4.28-.76,2.67,2.67,0,0,0-1.89,2,1.68,1.68,0,0,0,.41,1.33,4.1,4.1,0,0,0,3,.83h5.4c2.56,0,6.07.46,8.21,2.65a6.89,6.89,0,0,1,2,5,7,7,0,0,1-2.17,5.09C124.72,91.9,120.28,92.42,117,92.42Zm-4.44-11.73a4,4,0,0,0-2.9,3.64,3.23,3.23,0,0,0,.95,2.4c1.63,1.63,5,1.63,6.64,1.63,3.3,0,5.46-.55,6.59-1.68a3.26,3.26,0,0,0,1-2.35c0-3.37-3.32-3.65-6.43-3.65Zm4-21.65c-3.29,0-5.49,2.07-5.49,5.15a5.5,5.5,0,0,0,11,0C122,61.11,119.84,59,116.56,59Z" transform="translate(-1.65 -1.1)"/><path d="M127.07,89.25c-2.38,2.34-6.62,2.92-10.07,2.92-3.26,0-7.1-.44-9.49-2.82A5.89,5.89,0,0,1,105.66,85a6.2,6.2,0,0,1,3.5-5.55,4.41,4.41,0,0,1-2.82-4.14,5.42,5.42,0,0,1,3.36-4.77,8.6,8.6,0,0,1-.49-12.36,9.86,9.86,0,0,1,7.4-2.77,10.79,10.79,0,0,1,5.74,1.46,5.27,5.27,0,0,1,5.11-3.46,10.21,10.21,0,0,1,1.22.1v3.36a5.28,5.28,0,0,0-.92,0,3.05,3.05,0,0,0-3.07,2.24,7.94,7.94,0,0,1,1.65,5.11A8.6,8.6,0,0,1,124.1,70a10,10,0,0,1-7.49,3,11.71,11.71,0,0,1-4.28-.78,3,3,0,0,0-2.14,2.29c-.15,2.14,2.09,2.43,3.65,2.43h5.4c2.92,0,6.08.58,8,2.58a6.59,6.59,0,0,1,1.9,4.82A6.79,6.79,0,0,1,127.07,89.25Zm-9.83-8.81h-4.72a4.27,4.27,0,0,0-3.11,3.89,3.48,3.48,0,0,0,1,2.58c1.61,1.61,4.67,1.7,6.81,1.7s5.21-.19,6.76-1.75a3.51,3.51,0,0,0,1.12-2.53C125.12,80.15,120.35,80.44,117.24,80.44Zm-.68-21.65c-3.5,0-5.74,2.29-5.74,5.4a5.75,5.75,0,0,0,11.48,0C122.3,61.08,120.06,58.79,116.56,58.79Z" transform="translate(-1.65 -1.1)"/><path d="M151.09,80.93a.25.25,0,0,1-.25-.25V65.06c0-3.74-1.73-5.64-5.15-5.64a6.21,6.21,0,0,0-5.32,3.8,16.76,16.76,0,0,0-1,6.22V80.68a.25.25,0,0,1-.25.25h-4.18a.25.25,0,0,1-.25-.25V56.06a.25.25,0,0,1,.25-.25H139a.25.25,0,0,1,.18.08.25.25,0,0,1,.07.18l-.06,2.77a9.4,9.4,0,0,1,7.42-3.66c5.73,0,9,3.39,9,9.3v16.2a.25.25,0,0,1-.25.25Z" transform="translate(-1.65 -1.1)"/><path d="M151.09,80.68V65.06c0-3.6-1.61-5.89-5.4-5.89a6.45,6.45,0,0,0-5.55,3.94,16.65,16.65,0,0,0-1.07,6.33V80.68h-4.18V56.06H139l-.08,3.7a8.82,8.82,0,0,1,7.69-4.33c5.6,0,8.76,3.36,8.76,9.05v16.2Z" transform="translate(-1.65 -1.1)"/><path d="M14.41,121.49a11.32,11.32,0,0,1-7.86-3.09A13.58,13.58,0,0,1,2.67,108.3,13.58,13.58,0,0,1,6.54,98.19a11.33,11.33,0,0,1,7.86-3.09,10.67,10.67,0,0,1,7.43,2.75A9.69,9.69,0,0,1,25,104.29a.25.25,0,0,1-.25.27H20.54a.25.25,0,0,1-.25-.22,6,6,0,0,0-1.88-3.65,6.09,6.09,0,0,0-4-1.48A6.53,6.53,0,0,0,10,100.89c-2.14,1.95-2.59,5.1-2.59,7.41s.45,5.41,2.59,7.36a6.49,6.49,0,0,0,4.41,1.74,6.09,6.09,0,0,0,4-1.49,6,6,0,0,0,1.92-3.64.25.25,0,0,1,.25-.22h4.14a.25.25,0,0,1,.25.27,9.78,9.78,0,0,1-3.19,6.49A10.6,10.6,0,0,1,14.41,121.49Z" transform="translate(-1.65 -1.1)"/><path d="M14.41,95.35A10.43,10.43,0,0,1,21.66,98a9.46,9.46,0,0,1,3.07,6.28H20.54a6.2,6.2,0,0,0-1.95-3.8A6.3,6.3,0,0,0,14.41,99a6.74,6.74,0,0,0-4.57,1.75c-2.09,1.9-2.68,4.91-2.68,7.59s.58,5.64,2.68,7.54a6.77,6.77,0,0,0,4.57,1.8,6.13,6.13,0,0,0,6.18-5.35h4.14a9.62,9.62,0,0,1-3.11,6.33,10.28,10.28,0,0,1-7.2,2.63,11.14,11.14,0,0,1-7.69-3,13.31,13.31,0,0,1-3.79-9.93,13.31,13.31,0,0,1,3.79-9.93A11.14,11.14,0,0,1,14.41,95.35Z" transform="translate(-1.65 -1.1)"/><path d="M41.06,121.49a11.6,11.6,0,0,1-8-3,13.65,13.65,0,0,1-3.92-10.15A13.65,13.65,0,0,1,33.1,98.14a11.61,11.61,0,0,1,8-3,11.31,11.31,0,0,1,7.86,3,13.58,13.58,0,0,1,3.92,10.11,13.71,13.71,0,0,1-3.92,10.2A11.3,11.3,0,0,1,41.06,121.49ZM41,99.2a6.52,6.52,0,0,0-4.41,1.69c-2.34,2.12-2.69,5.52-2.69,7.36s.35,5.33,2.69,7.45a6.6,6.6,0,0,0,8.81,0c2.34-2.12,2.69-5.55,2.69-7.41s-.35-5.28-2.69-7.41A6.53,6.53,0,0,0,41,99.2Z" transform="translate(-1.65 -1.1)"/><path d="M48.75,118.27a11.11,11.11,0,0,1-7.69,3,11.36,11.36,0,0,1-7.79-3,13.46,13.46,0,0,1-3.84-10,13.46,13.46,0,0,1,3.84-10,11.36,11.36,0,0,1,7.79-3,11.11,11.11,0,0,1,7.69,3,13.34,13.34,0,0,1,3.84,9.93A13.57,13.57,0,0,1,48.75,118.27Zm-3.16-17.57a6.85,6.85,0,0,0-9.15,0c-2.09,1.9-2.77,4.87-2.77,7.54s.68,5.74,2.77,7.64a6.85,6.85,0,0,0,9.15,0c2.09-1.9,2.77-4.91,2.77-7.59S47.68,102.6,45.59,100.71Z" transform="translate(-1.65 -1.1)"/></g><rect class="a" x="1.7" y="130.27" width="46.94" height="3.75" rx="0.36" ry="0.36"/></svg>